<svg id="Layer_1" data-name="Layer 1" xmlns="http://www.w3.org/2000/svg" xmlns:xlink="http://www.w3.org/1999/xlink" viewBox="0 0 200 100"><defs><style>.cls-1{fill:url(#radial-gradient);}.cls-2{fill:#608d2b;}.cls-3{mix-blend-mode:screen;}.cls-4{fill:url(#linear-gradient);}.cls-5{fill:url(#linear-gradient-2);}.cls-6{fill:url(#linear-gradient-3);}.cls-7{fill:url(#linear-gradient-4);}</style><radialGradient id="radial-gradient" cx="325.74" cy="16274.41" r="33.51" gradientTransform="translate(16313.1 -308.31) rotate(90)" gradientUnits="userSpaceOnUse"><stop offset="0" stop-color="#eceb7b"/><stop offset="1" stop-color="#8bc53f"/></radialGradient><linearGradient id="linear-gradient" x1="50.94" y1="21.06" x2="-17.6" y2="37.91" gradientUnits="userSpaceOnUse"><stop offset="0" stop-color="#fff"/><stop offset="1"/></linearGradient><linearGradient id="linear-gradient-2" x1="0.35" y1="2.73" x2="20.34" y2="27.73" xlink:href="#linear-gradient"/><linearGradient id="linear-gradient-3" x1="72.51" y1="-20.74" x2="72.51" y2="39.78" gradientUnits="userSpaceOnUse"><stop offset="0" stop-color="#e5e653"/><stop offset="1" stop-color="#80b539"/></linearGradient><linearGradient id="linear-gradient-4" x1="72.51" y1="-4.45" x2="72.51" y2="16.22" xlink:href="#linear-gradient"/><symbol id="Bullet_7_-_Green" data-name="Bullet 7 - Green" viewBox="0 0 37.5 41.88"><path class="cls-1" d="M3.85,41.38C1.78,41.38.5,39.68.5,36.94v-32C.5,2.2,1.78.5,3.85.5a5.83,5.83,0,0,1,2.83.87l27.71,16c1.68,1,2.61,2.24,2.61,3.57s-.93,2.6-2.61,3.57l-27.71,16A5.83,5.83,0,0,1,3.85,41.38Z"/><path class="cls-2" d="M3.85,1h0a5.4,5.4,0,0,1,2.58.8l27.71,16c1.52.88,2.36,2,2.36,3.14s-.84,2.25-2.36,3.13l-27.71,16a5.31,5.31,0,0,1-2.58.81C2.07,40.88,1,39.41,1,36.94v-32C1,2.47,2.07,1,3.85,1m0-1C1.57,0,0,1.81,0,4.94v32c0,3.12,1.57,4.94,3.85,4.94a6.24,6.24,0,0,0,3.08-.94l27.71-16c3.81-2.2,3.81-5.8,0-8L6.93.94A6.24,6.24,0,0,0,3.85,0Z"/><g class="cls-3"><path class="cls-4" d="M33.64,18.67l-.83-.48a2.34,2.34,0,0,1,.93,1.61c0,.77-.69,1.6-1.88,2.29L4,38.2a5.09,5.09,0,0,1-1.6.63,1.58,1.58,0,0,0,1.5,1.05,4.33,4.33,0,0,0,2.08-.67l27.71-16c1.18-.68,1.86-1.51,1.86-2.27S34.82,19.35,33.64,18.67Z"/></g><g class="cls-3"><path class="cls-5" d="M19.39,16.43a52.29,52.29,0,0,1,7.42-1.7L5.93,2.67A4.33,4.33,0,0,0,3.85,2C2.18,2,2,4.05,2,4.94V25.88A45.79,45.79,0,0,1,19.39,16.43Z"/></g></symbol><symbol id="Button_3_-_Green" data-name="Button 3 - Green" viewBox="0 0 145.01 33"><path class="cls-6" d="M16.5,32.5a16,16,0,0,1,0-32h112a16,16,0,0,1,0,32Z"/><path class="cls-2" d="M128.51,1a15.5,15.5,0,0,1,0,31H16.5a15.5,15.5,0,0,1,0-31h112m0-1H16.5a16.5,16.5,0,0,0,0,33h112a16.5,16.5,0,0,0,0-33Z"/><g class="cls-3"><path class="cls-7" d="M16.5,3h112A15.51,15.51,0,0,1,144,17.5c0-.33,0-.66,0-1A15.52,15.52,0,0,0,128.51,1H16.5A15.52,15.52,0,0,0,1,16.5c0,.34,0,.67.05,1A15.51,15.51,0,0,1,16.5,3Z"/></g></symbol></defs><title>btnPausePlay</title><use width="37.5" height="41.88" transform="translate(16.42 12.5) scale(1.79)" xlink:href="#Bullet_7_-_Green"/><use width="145.01" height="33" transform="translate(124.13 87.5) rotate(-90) scale(0.52)" xlink:href="#Button_3_-_Green"/><use width="145.01" height="33" transform="translate(158.8 87.5) rotate(-90) scale(0.52)" xlink:href="#Button_3_-_Green"/></svg>